<svg width="100%" height="100%" id="svg" viewBox="0 0 1440 590" xmlns="http://www.w3.org/2000/svg" class="transition duration-300 ease-in-out delay-150"><defs><linearGradient id="gradient" x1="0%" y1="50%" x2="100%" y2="50%"><stop offset="5%" stop-color="#F78DA7"></stop><stop offset="95%" stop-color="#8ED1FC"></stop></linearGradient></defs><path d="M 0,600 L 0,150 C 111.75119617224877,115.71291866028707 223.50239234449754,81.42583732057416 310,92 C 396.49760765550246,102.57416267942584 457.7416267942584,158.00956937799043 549,157 C 640.2583732057416,155.99043062200957 761.5311004784688,98.53588516746412 870,105 C 978.4688995215312,111.46411483253588 1074.1339712918661,181.8468899521531 1167,200 C 1259.8660287081339,218.1531100478469 1349.933014354067,184.07655502392345 1440,150 L 1440,600 L 0,600 Z" stroke="none" stroke-width="0" fill="url(#gradient)" fill-opacity="0.53" class="transition-all duration-300 ease-in-out delay-150 path-0"></path><defs><linearGradient id="gradient" x1="0%" y1="50%" x2="100%" y2="50%"><stop offset="5%" stop-color="#F78DA7"></stop><stop offset="95%" stop-color="#8ED1FC"></stop></linearGradient></defs><path d="M 0,600 L 0,350 C 101.33014354066987,321.79904306220095 202.66028708133973,293.5980861244019 310,278 C 417.33971291866027,262.4019138755981 530.688995215311,259.40669856459334 627,297 C 723.311004784689,334.59330143540666 802.5837320574162,412.77511961722485 883,411 C 963.4162679425838,409.22488038277515 1044.976076555024,327.49282296650716 1138,304 C 1231.023923444976,280.50717703349284 1335.511961722488,315.2535885167464 1440,350 L 1440,600 L 0,600 Z" stroke="none" stroke-width="0" fill="url(#gradient)" fill-opacity="1" class="transition-all duration-300 ease-in-out delay-150 path-1"></path></svg>