<svg width="100%" height="100%" id="svg" viewBox="0 0 1440 590" xmlns="http://www.w3.org/2000/svg" class="transition duration-300 ease-in-out delay-150"><defs><linearGradient id="gradient" x1="0%" y1="50%" x2="100%" y2="50%"><stop offset="5%" stop-color="#F78DA7"></stop><stop offset="95%" stop-color="#8ED1FC"></stop></linearGradient></defs><path d="M 0,600 L 0,150 C 72.34449760765548,120.63157894736842 144.68899521531097,91.26315789473685 236,91 C 327.31100478468903,90.73684210526315 437.5885167464115,119.57894736842105 551,118 C 664.4114832535885,116.42105263157895 780.956937799043,84.42105263157897 877,77 C 973.043062200957,69.57894736842103 1048.5837320574165,86.73684210526315 1139,103 C 1229.4162679425835,119.26315789473685 1334.7081339712918,134.63157894736844 1440,150 L 1440,600 L 0,600 Z" stroke="none" stroke-width="0" fill="url(#gradient)" fill-opacity="0.53" class="transition-all duration-300 ease-in-out delay-150 path-0"></path><defs><linearGradient id="gradient" x1="0%" y1="50%" x2="100%" y2="50%"><stop offset="5%" stop-color="#F78DA7"></stop><stop offset="95%" stop-color="#8ED1FC"></stop></linearGradient></defs><path d="M 0,600 L 0,350 C 73.12918660287082,360.3540669856459 146.25837320574163,370.70813397129183 248,357 C 349.74162679425837,343.29186602870817 480.0956937799042,305.5215311004785 596,315 C 711.9043062200958,324.4784688995215 813.3588516746411,381.20574162679424 893,397 C 972.6411483253589,412.79425837320576 1030.4688995215313,387.65550239234454 1118,373 C 1205.5311004784687,358.34449760765546 1322.7655502392345,354.17224880382776 1440,350 L 1440,600 L 0,600 Z" stroke="none" stroke-width="0" fill="url(#gradient)" fill-opacity="1" class="transition-all duration-300 ease-in-out delay-150 path-1"></path></svg>