<svg width="100%" height="100%" id="svg" viewBox="0 0 1440 590" xmlns="http://www.w3.org/2000/svg" class="transition duration-300 ease-in-out delay-150"><defs><linearGradient id="gradient" x1="0%" y1="50%" x2="100%" y2="50%"><stop offset="5%" stop-color="#F78DA7"></stop><stop offset="95%" stop-color="#8ED1FC"></stop></linearGradient></defs><path d="M 0,600 L 0,150 C 80.31578947368422,148.21052631578948 160.63157894736844,146.42105263157896 272,165 C 383.36842105263156,183.57894736842104 525.7894736842105,222.52631578947367 619,218 C 712.2105263157895,213.47368421052633 756.2105263157894,165.4736842105263 831,132 C 905.7894736842106,98.52631578947368 1011.3684210526317,79.57894736842104 1118,85 C 1224.6315789473683,90.42105263157896 1332.3157894736842,120.21052631578948 1440,150 L 1440,600 L 0,600 Z" stroke="none" stroke-width="0" fill="url(#gradient)" fill-opacity="0.53" class="transition-all duration-300 ease-in-out delay-150 path-0"></path><defs><linearGradient id="gradient" x1="0%" y1="50%" x2="100%" y2="50%"><stop offset="5%" stop-color="#F78DA7"></stop><stop offset="95%" stop-color="#8ED1FC"></stop></linearGradient></defs><path d="M 0,600 L 0,350 C 122.94736842105263,372.76555023923447 245.89473684210526,395.5311004784689 338,399 C 430.10526315789474,402.4688995215311 491.36842105263156,386.64114832535887 583,359 C 674.6315789473684,331.35885167464113 796.6315789473683,291.9043062200957 888,277 C 979.3684210526317,262.0956937799043 1040.1052631578948,271.74162679425837 1127,288 C 1213.8947368421052,304.25837320574163 1326.9473684210525,327.12918660287085 1440,350 L 1440,600 L 0,600 Z" stroke="none" stroke-width="0" fill="url(#gradient)" fill-opacity="1" class="transition-all duration-300 ease-in-out delay-150 path-1"></path></svg>